<mxfile host="app.diagrams.net" modified="2021-01-25T01:47:15.591Z" agent="5.0 (Windows NT 10.0; Win64; x64) AppleWebKit/537.36 (KHTML, like Gecko) Chrome/87.0.4280.141 Safari/537.36" etag="jdj0IwcQigBOrfsGlrzW" version="14.2.4" type="github">
  <diagram id="-Oxh2yh2YHTzHLASi9jl" name="Page-1">
    <mxGraphModel dx="1736" dy="786" grid="1" gridSize="10" guides="1" tooltips="1" connect="1" arrows="1" fold="1" page="1" pageScale="1" pageWidth="827" pageHeight="1169" math="0" shadow="0">
      <root>
        <mxCell id="0" />
        <mxCell id="1" parent="0" />
        <mxCell id="oyXa_XFpboJBpk3tU4l2-1" value="&lt;font style=&quot;font-size: 16px&quot;&gt;&lt;b&gt;&lt;u&gt;Amazon Entity Relationship Diagram&lt;/u&gt;&lt;/b&gt;&lt;/font&gt;" style="text;html=1;strokeColor=none;fillColor=none;align=center;verticalAlign=middle;whiteSpace=wrap;rounded=0;" parent="1" vertex="1">
          <mxGeometry x="414" y="40" width="430" height="20" as="geometry" />
        </mxCell>
        <mxCell id="oyXa_XFpboJBpk3tU4l2-2" value="Gabriel Teixeira Lima Aracena &amp;amp; McKenna Branting&lt;br&gt;&lt;br&gt;CST-217&lt;br&gt;&lt;br&gt;Professor Bill Hughes&lt;br&gt;&lt;br&gt;This is our own work" style="text;html=1;strokeColor=none;fillColor=none;align=left;verticalAlign=top;whiteSpace=wrap;rounded=0;" parent="1" vertex="1">
          <mxGeometry x="80" y="50" width="290" height="130" as="geometry" />
        </mxCell>
        <mxCell id="oyXa_XFpboJBpk3tU4l2-6" style="edgeStyle=orthogonalEdgeStyle;rounded=0;orthogonalLoop=1;jettySize=auto;html=1;exitX=0.5;exitY=0;exitDx=0;exitDy=0;entryX=1;entryY=0.5;entryDx=0;entryDy=0;endArrow=none;endFill=0;" parent="1" source="oyXa_XFpboJBpk3tU4l2-3" target="oyXa_XFpboJBpk3tU4l2-4" edge="1">
          <mxGeometry relative="1" as="geometry" />
        </mxCell>
        <mxCell id="oyXa_XFpboJBpk3tU4l2-8" style="edgeStyle=orthogonalEdgeStyle;rounded=0;orthogonalLoop=1;jettySize=auto;html=1;exitX=0;exitY=0.5;exitDx=0;exitDy=0;entryX=1;entryY=0.5;entryDx=0;entryDy=0;endArrow=none;endFill=0;" parent="1" source="oyXa_XFpboJBpk3tU4l2-3" target="oyXa_XFpboJBpk3tU4l2-7" edge="1">
          <mxGeometry relative="1" as="geometry" />
        </mxCell>
        <mxCell id="oyXa_XFpboJBpk3tU4l2-23" style="edgeStyle=orthogonalEdgeStyle;rounded=0;orthogonalLoop=1;jettySize=auto;html=1;exitX=0.5;exitY=1;exitDx=0;exitDy=0;endArrow=none;endFill=0;startArrow=ERoneToMany;startFill=0;" parent="1" source="oyXa_XFpboJBpk3tU4l2-3" target="oyXa_XFpboJBpk3tU4l2-22" edge="1">
          <mxGeometry relative="1" as="geometry" />
        </mxCell>
        <mxCell id="oyXa_XFpboJBpk3tU4l2-42" style="edgeStyle=orthogonalEdgeStyle;rounded=0;orthogonalLoop=1;jettySize=auto;html=1;exitX=1;exitY=0;exitDx=0;exitDy=0;startArrow=ERzeroToMany;startFill=1;endArrow=none;endFill=0;entryX=0;entryY=0.5;entryDx=0;entryDy=0;" parent="1" source="oyXa_XFpboJBpk3tU4l2-3" target="Cbv1wFr-eD6YkLbhYGv3-11" edge="1">
          <mxGeometry relative="1" as="geometry">
            <mxPoint x="100" y="350" as="targetPoint" />
            <Array as="points">
              <mxPoint x="320" y="580" />
              <mxPoint x="320" y="550" />
            </Array>
          </mxGeometry>
        </mxCell>
        <mxCell id="oyXa_XFpboJBpk3tU4l2-81" style="edgeStyle=orthogonalEdgeStyle;rounded=0;orthogonalLoop=1;jettySize=auto;html=1;entryX=0;entryY=0.5;entryDx=0;entryDy=0;startArrow=ERoneToMany;startFill=0;endArrow=ERone;endFill=0;exitX=1;exitY=0.5;exitDx=0;exitDy=0;" parent="1" source="oyXa_XFpboJBpk3tU4l2-3" target="oyXa_XFpboJBpk3tU4l2-80" edge="1">
          <mxGeometry relative="1" as="geometry">
            <Array as="points">
              <mxPoint x="510" y="600" />
              <mxPoint x="510" y="510" />
            </Array>
            <mxPoint x="400" y="530" as="sourcePoint" />
          </mxGeometry>
        </mxCell>
        <mxCell id="oyXa_XFpboJBpk3tU4l2-3" value="Product" style="rounded=1;arcSize=10;whiteSpace=wrap;html=1;align=center;fillColor=#dae8fc;strokeColor=#6c8ebf;" parent="1" vertex="1">
          <mxGeometry x="185" y="580" width="100" height="40" as="geometry" />
        </mxCell>
        <mxCell id="oyXa_XFpboJBpk3tU4l2-4" value="ProductID" style="ellipse;whiteSpace=wrap;html=1;align=center;fontStyle=4;fillColor=#f8cecc;strokeColor=#b85450;" parent="1" vertex="1">
          <mxGeometry x="65" y="540" width="100" height="40" as="geometry" />
        </mxCell>
        <mxCell id="oyXa_XFpboJBpk3tU4l2-7" value="Name" style="ellipse;whiteSpace=wrap;html=1;align=center;fillColor=#d5e8d4;strokeColor=#82b366;" parent="1" vertex="1">
          <mxGeometry x="45" y="600" width="100" height="40" as="geometry" />
        </mxCell>
        <mxCell id="oyXa_XFpboJBpk3tU4l2-10" style="edgeStyle=orthogonalEdgeStyle;rounded=0;orthogonalLoop=1;jettySize=auto;html=1;exitX=1;exitY=0.5;exitDx=0;exitDy=0;entryX=0;entryY=0.75;entryDx=0;entryDy=0;endArrow=none;endFill=0;" parent="1" source="oyXa_XFpboJBpk3tU4l2-9" target="oyXa_XFpboJBpk3tU4l2-3" edge="1">
          <mxGeometry relative="1" as="geometry" />
        </mxCell>
        <mxCell id="oyXa_XFpboJBpk3tU4l2-9" value="Description" style="ellipse;whiteSpace=wrap;html=1;align=center;fillColor=#d5e8d4;strokeColor=#82b366;" parent="1" vertex="1">
          <mxGeometry x="45" y="660" width="100" height="40" as="geometry" />
        </mxCell>
        <mxCell id="oyXa_XFpboJBpk3tU4l2-14" style="edgeStyle=orthogonalEdgeStyle;rounded=0;orthogonalLoop=1;jettySize=auto;html=1;exitX=1;exitY=0.5;exitDx=0;exitDy=0;entryX=0;entryY=0.75;entryDx=0;entryDy=0;endArrow=none;endFill=0;" parent="1" source="oyXa_XFpboJBpk3tU4l2-11" target="oyXa_XFpboJBpk3tU4l2-3" edge="1">
          <mxGeometry relative="1" as="geometry" />
        </mxCell>
        <mxCell id="oyXa_XFpboJBpk3tU4l2-11" value="Image" style="ellipse;whiteSpace=wrap;html=1;align=center;fillColor=#d5e8d4;strokeColor=#82b366;" parent="1" vertex="1">
          <mxGeometry x="45" y="720" width="100" height="40" as="geometry" />
        </mxCell>
        <mxCell id="oyXa_XFpboJBpk3tU4l2-13" style="edgeStyle=orthogonalEdgeStyle;rounded=0;orthogonalLoop=1;jettySize=auto;html=1;exitX=1;exitY=0.5;exitDx=0;exitDy=0;entryX=0;entryY=0.75;entryDx=0;entryDy=0;endArrow=none;endFill=0;" parent="1" source="oyXa_XFpboJBpk3tU4l2-12" target="oyXa_XFpboJBpk3tU4l2-3" edge="1">
          <mxGeometry relative="1" as="geometry" />
        </mxCell>
        <mxCell id="oyXa_XFpboJBpk3tU4l2-12" value="Materials" style="ellipse;whiteSpace=wrap;html=1;align=center;fillColor=#d5e8d4;strokeColor=#82b366;" parent="1" vertex="1">
          <mxGeometry x="45" y="780" width="100" height="40" as="geometry" />
        </mxCell>
        <mxCell id="oyXa_XFpboJBpk3tU4l2-18" style="edgeStyle=orthogonalEdgeStyle;rounded=0;orthogonalLoop=1;jettySize=auto;html=1;exitX=1;exitY=0.5;exitDx=0;exitDy=0;entryX=0;entryY=0.75;entryDx=0;entryDy=0;endArrow=none;endFill=0;" parent="1" source="oyXa_XFpboJBpk3tU4l2-15" target="oyXa_XFpboJBpk3tU4l2-3" edge="1">
          <mxGeometry relative="1" as="geometry" />
        </mxCell>
        <mxCell id="oyXa_XFpboJBpk3tU4l2-15" value="Manufacturer" style="ellipse;whiteSpace=wrap;html=1;align=center;fillColor=#d5e8d4;strokeColor=#82b366;" parent="1" vertex="1">
          <mxGeometry x="45" y="830" width="100" height="40" as="geometry" />
        </mxCell>
        <mxCell id="oyXa_XFpboJBpk3tU4l2-19" style="edgeStyle=orthogonalEdgeStyle;rounded=0;orthogonalLoop=1;jettySize=auto;html=1;exitX=1;exitY=0.5;exitDx=0;exitDy=0;entryX=0;entryY=0.75;entryDx=0;entryDy=0;endArrow=none;endFill=0;" parent="1" source="oyXa_XFpboJBpk3tU4l2-16" target="oyXa_XFpboJBpk3tU4l2-3" edge="1">
          <mxGeometry relative="1" as="geometry" />
        </mxCell>
        <mxCell id="oyXa_XFpboJBpk3tU4l2-16" value="Cost" style="ellipse;whiteSpace=wrap;html=1;align=center;fillColor=#d5e8d4;strokeColor=#82b366;" parent="1" vertex="1">
          <mxGeometry x="45" y="890" width="100" height="40" as="geometry" />
        </mxCell>
        <mxCell id="oyXa_XFpboJBpk3tU4l2-20" style="edgeStyle=orthogonalEdgeStyle;rounded=0;orthogonalLoop=1;jettySize=auto;html=1;exitX=1;exitY=0.5;exitDx=0;exitDy=0;endArrow=none;endFill=0;entryX=0;entryY=0.75;entryDx=0;entryDy=0;" parent="1" source="oyXa_XFpboJBpk3tU4l2-17" target="oyXa_XFpboJBpk3tU4l2-3" edge="1">
          <mxGeometry relative="1" as="geometry">
            <mxPoint x="185" y="620" as="targetPoint" />
          </mxGeometry>
        </mxCell>
        <mxCell id="oyXa_XFpboJBpk3tU4l2-17" value="Price" style="ellipse;whiteSpace=wrap;html=1;align=center;fillColor=#d5e8d4;strokeColor=#82b366;" parent="1" vertex="1">
          <mxGeometry x="45" y="950" width="100" height="40" as="geometry" />
        </mxCell>
        <mxCell id="oyXa_XFpboJBpk3tU4l2-26" style="edgeStyle=orthogonalEdgeStyle;rounded=0;orthogonalLoop=1;jettySize=auto;html=1;exitX=0;exitY=0;exitDx=0;exitDy=0;startArrow=none;startFill=0;endArrow=none;endFill=0;" parent="1" source="oyXa_XFpboJBpk3tU4l2-21" target="oyXa_XFpboJBpk3tU4l2-25" edge="1">
          <mxGeometry relative="1" as="geometry" />
        </mxCell>
        <mxCell id="oyXa_XFpboJBpk3tU4l2-78" style="edgeStyle=orthogonalEdgeStyle;rounded=0;orthogonalLoop=1;jettySize=auto;html=1;exitX=0;exitY=0.5;exitDx=0;exitDy=0;startArrow=none;startFill=0;endArrow=ERzeroToMany;endFill=1;entryX=1;entryY=0.5;entryDx=0;entryDy=0;" parent="1" source="oyXa_XFpboJBpk3tU4l2-77" target="oyXa_XFpboJBpk3tU4l2-21" edge="1">
          <mxGeometry relative="1" as="geometry">
            <mxPoint x="410" y="840" as="targetPoint" />
          </mxGeometry>
        </mxCell>
        <mxCell id="oyXa_XFpboJBpk3tU4l2-21" value="Ad" style="rounded=1;arcSize=10;whiteSpace=wrap;html=1;align=center;fillColor=#dae8fc;strokeColor=#6c8ebf;" parent="1" vertex="1">
          <mxGeometry x="185" y="1050" width="100" height="40" as="geometry" />
        </mxCell>
        <mxCell id="oyXa_XFpboJBpk3tU4l2-24" style="edgeStyle=orthogonalEdgeStyle;rounded=0;orthogonalLoop=1;jettySize=auto;html=1;exitX=0.5;exitY=1;exitDx=0;exitDy=0;entryX=0.5;entryY=0;entryDx=0;entryDy=0;startArrow=none;startFill=0;endArrow=ERoneToMany;endFill=0;" parent="1" source="oyXa_XFpboJBpk3tU4l2-22" target="oyXa_XFpboJBpk3tU4l2-21" edge="1">
          <mxGeometry relative="1" as="geometry" />
        </mxCell>
        <mxCell id="oyXa_XFpboJBpk3tU4l2-22" value="Promotes" style="shape=rhombus;perimeter=rhombusPerimeter;whiteSpace=wrap;html=1;align=center;fillColor=#ffe6cc;strokeColor=#d79b00;" parent="1" vertex="1">
          <mxGeometry x="175" y="800" width="120" height="60" as="geometry" />
        </mxCell>
        <mxCell id="oyXa_XFpboJBpk3tU4l2-25" value="AdID" style="ellipse;whiteSpace=wrap;html=1;align=center;fontStyle=4;fillColor=#f8cecc;strokeColor=#b85450;" parent="1" vertex="1">
          <mxGeometry x="55" y="1010" width="100" height="40" as="geometry" />
        </mxCell>
        <mxCell id="oyXa_XFpboJBpk3tU4l2-34" style="edgeStyle=orthogonalEdgeStyle;rounded=0;orthogonalLoop=1;jettySize=auto;html=1;exitX=1;exitY=0.5;exitDx=0;exitDy=0;entryX=0;entryY=0.5;entryDx=0;entryDy=0;startArrow=none;startFill=0;endArrow=none;endFill=0;" parent="1" source="oyXa_XFpboJBpk3tU4l2-27" target="oyXa_XFpboJBpk3tU4l2-21" edge="1">
          <mxGeometry relative="1" as="geometry" />
        </mxCell>
        <mxCell id="oyXa_XFpboJBpk3tU4l2-27" value="Type" style="ellipse;whiteSpace=wrap;html=1;align=center;fillColor=#d5e8d4;strokeColor=#82b366;" parent="1" vertex="1">
          <mxGeometry x="45" y="1070" width="100" height="40" as="geometry" />
        </mxCell>
        <mxCell id="oyXa_XFpboJBpk3tU4l2-33" style="edgeStyle=orthogonalEdgeStyle;rounded=0;orthogonalLoop=1;jettySize=auto;html=1;exitX=1;exitY=0.5;exitDx=0;exitDy=0;entryX=0;entryY=0.75;entryDx=0;entryDy=0;startArrow=none;startFill=0;endArrow=none;endFill=0;" parent="1" source="oyXa_XFpboJBpk3tU4l2-28" target="oyXa_XFpboJBpk3tU4l2-21" edge="1">
          <mxGeometry relative="1" as="geometry" />
        </mxCell>
        <mxCell id="oyXa_XFpboJBpk3tU4l2-28" value="AgeRequired" style="ellipse;whiteSpace=wrap;html=1;align=center;fillColor=#d5e8d4;strokeColor=#82b366;" parent="1" vertex="1">
          <mxGeometry x="45" y="1120" width="100" height="40" as="geometry" />
        </mxCell>
        <mxCell id="oyXa_XFpboJBpk3tU4l2-32" style="edgeStyle=orthogonalEdgeStyle;rounded=0;orthogonalLoop=1;jettySize=auto;html=1;exitX=1;exitY=0.5;exitDx=0;exitDy=0;entryX=0;entryY=0.75;entryDx=0;entryDy=0;startArrow=none;startFill=0;endArrow=none;endFill=0;" parent="1" source="oyXa_XFpboJBpk3tU4l2-29" target="oyXa_XFpboJBpk3tU4l2-21" edge="1">
          <mxGeometry relative="1" as="geometry" />
        </mxCell>
        <mxCell id="oyXa_XFpboJBpk3tU4l2-29" value="TargetAudience" style="ellipse;whiteSpace=wrap;html=1;align=center;fillColor=#d5e8d4;strokeColor=#82b366;" parent="1" vertex="1">
          <mxGeometry x="45" y="1170" width="100" height="40" as="geometry" />
        </mxCell>
        <mxCell id="oyXa_XFpboJBpk3tU4l2-31" style="edgeStyle=orthogonalEdgeStyle;rounded=0;orthogonalLoop=1;jettySize=auto;html=1;exitX=1;exitY=0.5;exitDx=0;exitDy=0;entryX=0;entryY=0.75;entryDx=0;entryDy=0;startArrow=none;startFill=0;endArrow=none;endFill=0;" parent="1" source="oyXa_XFpboJBpk3tU4l2-30" target="oyXa_XFpboJBpk3tU4l2-21" edge="1">
          <mxGeometry relative="1" as="geometry" />
        </mxCell>
        <mxCell id="oyXa_XFpboJBpk3tU4l2-30" value="ProductType" style="ellipse;whiteSpace=wrap;html=1;align=center;fillColor=#d5e8d4;strokeColor=#82b366;" parent="1" vertex="1">
          <mxGeometry x="45" y="1220" width="100" height="40" as="geometry" />
        </mxCell>
        <mxCell id="oyXa_XFpboJBpk3tU4l2-41" style="edgeStyle=orthogonalEdgeStyle;rounded=0;orthogonalLoop=1;jettySize=auto;html=1;exitX=0.5;exitY=1;exitDx=0;exitDy=0;entryX=0.5;entryY=0;entryDx=0;entryDy=0;startArrow=ERmandOne;startFill=0;endArrow=none;endFill=0;" parent="1" source="oyXa_XFpboJBpk3tU4l2-35" target="oyXa_XFpboJBpk3tU4l2-40" edge="1">
          <mxGeometry relative="1" as="geometry" />
        </mxCell>
        <mxCell id="oyXa_XFpboJBpk3tU4l2-44" style="edgeStyle=orthogonalEdgeStyle;rounded=0;orthogonalLoop=1;jettySize=auto;html=1;exitX=1;exitY=0.5;exitDx=0;exitDy=0;entryX=0;entryY=0.5;entryDx=0;entryDy=0;startArrow=ERmandOne;startFill=0;endArrow=none;endFill=0;" parent="1" source="oyXa_XFpboJBpk3tU4l2-35" target="oyXa_XFpboJBpk3tU4l2-43" edge="1">
          <mxGeometry relative="1" as="geometry" />
        </mxCell>
        <mxCell id="oyXa_XFpboJBpk3tU4l2-35" value="Amazon" style="rounded=1;arcSize=10;whiteSpace=wrap;html=1;align=center;fillColor=#dae8fc;strokeColor=#6c8ebf;" parent="1" vertex="1">
          <mxGeometry x="355" y="170" width="100" height="40" as="geometry" />
        </mxCell>
        <mxCell id="oyXa_XFpboJBpk3tU4l2-39" style="edgeStyle=orthogonalEdgeStyle;rounded=0;orthogonalLoop=1;jettySize=auto;html=1;exitX=1;exitY=0.5;exitDx=0;exitDy=0;entryX=0;entryY=0.25;entryDx=0;entryDy=0;startArrow=none;startFill=0;endArrow=none;endFill=0;" parent="1" source="oyXa_XFpboJBpk3tU4l2-36" target="oyXa_XFpboJBpk3tU4l2-35" edge="1">
          <mxGeometry relative="1" as="geometry" />
        </mxCell>
        <mxCell id="oyXa_XFpboJBpk3tU4l2-36" value="AmazonID" style="ellipse;whiteSpace=wrap;html=1;align=center;fontStyle=4;fillColor=#f8cecc;strokeColor=#b85450;" parent="1" vertex="1">
          <mxGeometry x="230" y="140" width="100" height="40" as="geometry" />
        </mxCell>
        <mxCell id="oyXa_XFpboJBpk3tU4l2-38" style="edgeStyle=orthogonalEdgeStyle;rounded=0;orthogonalLoop=1;jettySize=auto;html=1;exitX=1;exitY=0.5;exitDx=0;exitDy=0;entryX=0;entryY=0.75;entryDx=0;entryDy=0;startArrow=none;startFill=0;endArrow=none;endFill=0;" parent="1" source="oyXa_XFpboJBpk3tU4l2-37" target="oyXa_XFpboJBpk3tU4l2-35" edge="1">
          <mxGeometry relative="1" as="geometry" />
        </mxCell>
        <mxCell id="oyXa_XFpboJBpk3tU4l2-37" value="Name" style="ellipse;whiteSpace=wrap;html=1;align=center;fillColor=#d5e8d4;strokeColor=#82b366;" parent="1" vertex="1">
          <mxGeometry x="230" y="190" width="100" height="40" as="geometry" />
        </mxCell>
        <mxCell id="Cbv1wFr-eD6YkLbhYGv3-4" style="edgeStyle=orthogonalEdgeStyle;rounded=0;orthogonalLoop=1;jettySize=auto;html=1;exitX=0.5;exitY=1;exitDx=0;exitDy=0;entryX=0.5;entryY=0;entryDx=0;entryDy=0;endArrow=ERoneToMany;endFill=0;" edge="1" parent="1" source="oyXa_XFpboJBpk3tU4l2-40" target="Cbv1wFr-eD6YkLbhYGv3-3">
          <mxGeometry relative="1" as="geometry" />
        </mxCell>
        <mxCell id="oyXa_XFpboJBpk3tU4l2-40" value="Ambiences" style="shape=rhombus;perimeter=rhombusPerimeter;whiteSpace=wrap;html=1;align=center;fillColor=#ffe6cc;strokeColor=#d79b00;" parent="1" vertex="1">
          <mxGeometry x="345" y="280" width="120" height="60" as="geometry" />
        </mxCell>
        <mxCell id="oyXa_XFpboJBpk3tU4l2-46" style="edgeStyle=orthogonalEdgeStyle;rounded=0;orthogonalLoop=1;jettySize=auto;html=1;exitX=1;exitY=0.5;exitDx=0;exitDy=0;entryX=0;entryY=0.5;entryDx=0;entryDy=0;startArrow=none;startFill=0;endArrow=ERoneToMany;endFill=0;" parent="1" source="oyXa_XFpboJBpk3tU4l2-43" target="oyXa_XFpboJBpk3tU4l2-45" edge="1">
          <mxGeometry relative="1" as="geometry" />
        </mxCell>
        <mxCell id="oyXa_XFpboJBpk3tU4l2-43" value="Employs" style="shape=rhombus;perimeter=rhombusPerimeter;whiteSpace=wrap;html=1;align=center;fillColor=#ffe6cc;strokeColor=#d79b00;" parent="1" vertex="1">
          <mxGeometry x="580" y="160" width="120" height="60" as="geometry" />
        </mxCell>
        <mxCell id="oyXa_XFpboJBpk3tU4l2-48" style="edgeStyle=orthogonalEdgeStyle;rounded=0;orthogonalLoop=1;jettySize=auto;html=1;exitX=0.5;exitY=0;exitDx=0;exitDy=0;entryX=0;entryY=0.5;entryDx=0;entryDy=0;startArrow=none;startFill=0;endArrow=none;endFill=0;" parent="1" source="oyXa_XFpboJBpk3tU4l2-45" target="oyXa_XFpboJBpk3tU4l2-47" edge="1">
          <mxGeometry relative="1" as="geometry" />
        </mxCell>
        <mxCell id="oyXa_XFpboJBpk3tU4l2-60" style="edgeStyle=orthogonalEdgeStyle;rounded=0;orthogonalLoop=1;jettySize=auto;html=1;exitX=0.5;exitY=1;exitDx=0;exitDy=0;entryX=0.5;entryY=0;entryDx=0;entryDy=0;startArrow=ERoneToMany;startFill=0;endArrow=none;endFill=0;" parent="1" source="oyXa_XFpboJBpk3tU4l2-45" target="oyXa_XFpboJBpk3tU4l2-59" edge="1">
          <mxGeometry relative="1" as="geometry" />
        </mxCell>
        <mxCell id="oyXa_XFpboJBpk3tU4l2-45" value="Employee" style="rounded=1;arcSize=10;whiteSpace=wrap;html=1;align=center;fillColor=#dae8fc;strokeColor=#6c8ebf;" parent="1" vertex="1">
          <mxGeometry x="827" y="170" width="100" height="40" as="geometry" />
        </mxCell>
        <mxCell id="oyXa_XFpboJBpk3tU4l2-47" value="EmployeeID" style="ellipse;whiteSpace=wrap;html=1;align=center;fontStyle=4;fillColor=#f8cecc;strokeColor=#b85450;" parent="1" vertex="1">
          <mxGeometry x="927" y="100" width="100" height="40" as="geometry" />
        </mxCell>
        <mxCell id="oyXa_XFpboJBpk3tU4l2-54" style="edgeStyle=orthogonalEdgeStyle;rounded=0;orthogonalLoop=1;jettySize=auto;html=1;exitX=0;exitY=0.5;exitDx=0;exitDy=0;entryX=1;entryY=0.5;entryDx=0;entryDy=0;startArrow=none;startFill=0;endArrow=none;endFill=0;" parent="1" source="oyXa_XFpboJBpk3tU4l2-49" target="oyXa_XFpboJBpk3tU4l2-45" edge="1">
          <mxGeometry relative="1" as="geometry" />
        </mxCell>
        <mxCell id="oyXa_XFpboJBpk3tU4l2-49" value="Name" style="ellipse;whiteSpace=wrap;html=1;align=center;fillColor=#d5e8d4;strokeColor=#82b366;" parent="1" vertex="1">
          <mxGeometry x="990" y="155" width="100" height="40" as="geometry" />
        </mxCell>
        <mxCell id="oyXa_XFpboJBpk3tU4l2-55" style="edgeStyle=orthogonalEdgeStyle;rounded=0;orthogonalLoop=1;jettySize=auto;html=1;exitX=0;exitY=0.5;exitDx=0;exitDy=0;entryX=1;entryY=0.75;entryDx=0;entryDy=0;startArrow=none;startFill=0;endArrow=none;endFill=0;" parent="1" source="oyXa_XFpboJBpk3tU4l2-50" target="oyXa_XFpboJBpk3tU4l2-45" edge="1">
          <mxGeometry relative="1" as="geometry" />
        </mxCell>
        <mxCell id="oyXa_XFpboJBpk3tU4l2-50" value="JobType" style="ellipse;whiteSpace=wrap;html=1;align=center;fillColor=#d5e8d4;strokeColor=#82b366;" parent="1" vertex="1">
          <mxGeometry x="990" y="215" width="100" height="40" as="geometry" />
        </mxCell>
        <mxCell id="oyXa_XFpboJBpk3tU4l2-56" style="edgeStyle=orthogonalEdgeStyle;rounded=0;orthogonalLoop=1;jettySize=auto;html=1;exitX=0;exitY=0.5;exitDx=0;exitDy=0;entryX=1;entryY=0.75;entryDx=0;entryDy=0;startArrow=none;startFill=0;endArrow=none;endFill=0;" parent="1" source="oyXa_XFpboJBpk3tU4l2-51" target="oyXa_XFpboJBpk3tU4l2-45" edge="1">
          <mxGeometry relative="1" as="geometry" />
        </mxCell>
        <mxCell id="oyXa_XFpboJBpk3tU4l2-51" value="Salary" style="ellipse;whiteSpace=wrap;html=1;align=center;fillColor=#d5e8d4;strokeColor=#82b366;" parent="1" vertex="1">
          <mxGeometry x="990" y="275" width="100" height="40" as="geometry" />
        </mxCell>
        <mxCell id="oyXa_XFpboJBpk3tU4l2-57" style="edgeStyle=orthogonalEdgeStyle;rounded=0;orthogonalLoop=1;jettySize=auto;html=1;exitX=0;exitY=0.5;exitDx=0;exitDy=0;entryX=1;entryY=0.75;entryDx=0;entryDy=0;startArrow=none;startFill=0;endArrow=none;endFill=0;" parent="1" source="oyXa_XFpboJBpk3tU4l2-52" target="oyXa_XFpboJBpk3tU4l2-45" edge="1">
          <mxGeometry relative="1" as="geometry" />
        </mxCell>
        <mxCell id="oyXa_XFpboJBpk3tU4l2-52" value="Availability" style="ellipse;whiteSpace=wrap;html=1;align=center;fillColor=#d5e8d4;strokeColor=#82b366;" parent="1" vertex="1">
          <mxGeometry x="990" y="335" width="100" height="40" as="geometry" />
        </mxCell>
        <mxCell id="oyXa_XFpboJBpk3tU4l2-58" style="edgeStyle=orthogonalEdgeStyle;rounded=0;orthogonalLoop=1;jettySize=auto;html=1;exitX=0;exitY=0.5;exitDx=0;exitDy=0;entryX=1;entryY=0.75;entryDx=0;entryDy=0;startArrow=none;startFill=0;endArrow=none;endFill=0;" parent="1" source="oyXa_XFpboJBpk3tU4l2-53" target="oyXa_XFpboJBpk3tU4l2-45" edge="1">
          <mxGeometry relative="1" as="geometry" />
        </mxCell>
        <mxCell id="oyXa_XFpboJBpk3tU4l2-53" value="ContactInfo" style="ellipse;whiteSpace=wrap;html=1;align=center;fillColor=#d5e8d4;strokeColor=#82b366;" parent="1" vertex="1">
          <mxGeometry x="990" y="385" width="100" height="40" as="geometry" />
        </mxCell>
        <mxCell id="oyXa_XFpboJBpk3tU4l2-62" style="edgeStyle=orthogonalEdgeStyle;rounded=0;orthogonalLoop=1;jettySize=auto;html=1;exitX=0.5;exitY=1;exitDx=0;exitDy=0;startArrow=none;startFill=0;endArrow=ERmandOne;endFill=0;" parent="1" source="oyXa_XFpboJBpk3tU4l2-59" target="oyXa_XFpboJBpk3tU4l2-61" edge="1">
          <mxGeometry relative="1" as="geometry" />
        </mxCell>
        <mxCell id="oyXa_XFpboJBpk3tU4l2-59" value="Develops" style="shape=rhombus;perimeter=rhombusPerimeter;whiteSpace=wrap;html=1;align=center;fillColor=#ffe6cc;strokeColor=#d79b00;" parent="1" vertex="1">
          <mxGeometry x="817" y="340" width="120" height="60" as="geometry" />
        </mxCell>
        <mxCell id="oyXa_XFpboJBpk3tU4l2-64" style="edgeStyle=orthogonalEdgeStyle;rounded=0;orthogonalLoop=1;jettySize=auto;html=1;exitX=1;exitY=0;exitDx=0;exitDy=0;entryX=0;entryY=0.5;entryDx=0;entryDy=0;startArrow=none;startFill=0;endArrow=none;endFill=0;" parent="1" source="oyXa_XFpboJBpk3tU4l2-61" target="oyXa_XFpboJBpk3tU4l2-63" edge="1">
          <mxGeometry relative="1" as="geometry" />
        </mxCell>
        <mxCell id="oyXa_XFpboJBpk3tU4l2-75" style="edgeStyle=orthogonalEdgeStyle;rounded=0;orthogonalLoop=1;jettySize=auto;html=1;exitX=0.5;exitY=1;exitDx=0;exitDy=0;entryX=0.5;entryY=0;entryDx=0;entryDy=0;startArrow=ERmandOne;startFill=0;endArrow=none;endFill=0;" parent="1" source="oyXa_XFpboJBpk3tU4l2-61" target="oyXa_XFpboJBpk3tU4l2-74" edge="1">
          <mxGeometry relative="1" as="geometry" />
        </mxCell>
        <mxCell id="oyXa_XFpboJBpk3tU4l2-61" value="Website" style="rounded=1;arcSize=10;whiteSpace=wrap;html=1;align=center;fillColor=#dae8fc;strokeColor=#6c8ebf;" parent="1" vertex="1">
          <mxGeometry x="827" y="500" width="100" height="40" as="geometry" />
        </mxCell>
        <mxCell id="oyXa_XFpboJBpk3tU4l2-63" value="WebsiteID" style="ellipse;whiteSpace=wrap;html=1;align=center;fontStyle=4;fillColor=#f8cecc;strokeColor=#b85450;" parent="1" vertex="1">
          <mxGeometry x="927" y="440" width="100" height="40" as="geometry" />
        </mxCell>
        <mxCell id="oyXa_XFpboJBpk3tU4l2-72" style="edgeStyle=orthogonalEdgeStyle;rounded=0;orthogonalLoop=1;jettySize=auto;html=1;exitX=0;exitY=0.5;exitDx=0;exitDy=0;startArrow=none;startFill=0;endArrow=none;endFill=0;" parent="1" source="oyXa_XFpboJBpk3tU4l2-65" edge="1">
          <mxGeometry relative="1" as="geometry">
            <mxPoint x="930" y="530" as="targetPoint" />
          </mxGeometry>
        </mxCell>
        <mxCell id="oyXa_XFpboJBpk3tU4l2-65" value="Url" style="ellipse;whiteSpace=wrap;html=1;align=center;fillColor=#d5e8d4;strokeColor=#82b366;" parent="1" vertex="1">
          <mxGeometry x="990" y="490" width="100" height="40" as="geometry" />
        </mxCell>
        <mxCell id="oyXa_XFpboJBpk3tU4l2-71" style="edgeStyle=orthogonalEdgeStyle;rounded=0;orthogonalLoop=1;jettySize=auto;html=1;exitX=0;exitY=0.5;exitDx=0;exitDy=0;entryX=1;entryY=0.75;entryDx=0;entryDy=0;startArrow=none;startFill=0;endArrow=none;endFill=0;" parent="1" source="oyXa_XFpboJBpk3tU4l2-66" target="oyXa_XFpboJBpk3tU4l2-61" edge="1">
          <mxGeometry relative="1" as="geometry" />
        </mxCell>
        <mxCell id="oyXa_XFpboJBpk3tU4l2-66" value="Features" style="ellipse;whiteSpace=wrap;html=1;align=center;fillColor=#d5e8d4;strokeColor=#82b366;" parent="1" vertex="1">
          <mxGeometry x="990" y="550" width="100" height="40" as="geometry" />
        </mxCell>
        <mxCell id="oyXa_XFpboJBpk3tU4l2-70" style="edgeStyle=orthogonalEdgeStyle;rounded=0;orthogonalLoop=1;jettySize=auto;html=1;exitX=0;exitY=0.5;exitDx=0;exitDy=0;entryX=1;entryY=0.5;entryDx=0;entryDy=0;startArrow=none;startFill=0;endArrow=none;endFill=0;" parent="1" source="oyXa_XFpboJBpk3tU4l2-67" target="oyXa_XFpboJBpk3tU4l2-61" edge="1">
          <mxGeometry relative="1" as="geometry" />
        </mxCell>
        <mxCell id="oyXa_XFpboJBpk3tU4l2-67" value="AgeRequired" style="ellipse;whiteSpace=wrap;html=1;align=center;fillColor=#d5e8d4;strokeColor=#82b366;" parent="1" vertex="1">
          <mxGeometry x="990" y="610" width="100" height="40" as="geometry" />
        </mxCell>
        <mxCell id="oyXa_XFpboJBpk3tU4l2-69" style="edgeStyle=orthogonalEdgeStyle;rounded=0;orthogonalLoop=1;jettySize=auto;html=1;exitX=0;exitY=0.5;exitDx=0;exitDy=0;entryX=1;entryY=0.75;entryDx=0;entryDy=0;startArrow=none;startFill=0;endArrow=none;endFill=0;" parent="1" source="oyXa_XFpboJBpk3tU4l2-68" target="oyXa_XFpboJBpk3tU4l2-61" edge="1">
          <mxGeometry relative="1" as="geometry" />
        </mxCell>
        <mxCell id="oyXa_XFpboJBpk3tU4l2-68" value="Pages" style="ellipse;whiteSpace=wrap;html=1;align=center;fillColor=#d5e8d4;strokeColor=#82b366;" parent="1" vertex="1">
          <mxGeometry x="990" y="660" width="100" height="40" as="geometry" />
        </mxCell>
        <mxCell id="oyXa_XFpboJBpk3tU4l2-84" style="edgeStyle=orthogonalEdgeStyle;rounded=0;orthogonalLoop=1;jettySize=auto;html=1;exitX=0;exitY=0;exitDx=0;exitDy=0;entryX=0.5;entryY=1;entryDx=0;entryDy=0;startArrow=ERone;startFill=0;endArrow=none;endFill=0;" parent="1" source="oyXa_XFpboJBpk3tU4l2-73" target="oyXa_XFpboJBpk3tU4l2-83" edge="1">
          <mxGeometry relative="1" as="geometry" />
        </mxCell>
        <mxCell id="Cbv1wFr-eD6YkLbhYGv3-15" style="edgeStyle=orthogonalEdgeStyle;rounded=0;orthogonalLoop=1;jettySize=auto;html=1;exitX=0.5;exitY=1;exitDx=0;exitDy=0;startArrow=ERone;startFill=0;endArrow=none;endFill=0;" edge="1" parent="1" source="oyXa_XFpboJBpk3tU4l2-73" target="Cbv1wFr-eD6YkLbhYGv3-14">
          <mxGeometry relative="1" as="geometry" />
        </mxCell>
        <mxCell id="oyXa_XFpboJBpk3tU4l2-73" value="Customer" style="rounded=1;arcSize=10;whiteSpace=wrap;html=1;align=center;fillColor=#dae8fc;strokeColor=#6c8ebf;" parent="1" vertex="1">
          <mxGeometry x="827" y="740" width="100" height="40" as="geometry" />
        </mxCell>
        <mxCell id="oyXa_XFpboJBpk3tU4l2-76" style="edgeStyle=orthogonalEdgeStyle;rounded=0;orthogonalLoop=1;jettySize=auto;html=1;exitX=0.5;exitY=1;exitDx=0;exitDy=0;startArrow=none;startFill=0;endArrow=ERzeroToMany;endFill=1;" parent="1" source="oyXa_XFpboJBpk3tU4l2-74" target="oyXa_XFpboJBpk3tU4l2-73" edge="1">
          <mxGeometry relative="1" as="geometry" />
        </mxCell>
        <mxCell id="oyXa_XFpboJBpk3tU4l2-74" value="Interacts" style="shape=rhombus;perimeter=rhombusPerimeter;whiteSpace=wrap;html=1;align=center;fillColor=#ffe6cc;strokeColor=#d79b00;" parent="1" vertex="1">
          <mxGeometry x="817" y="620" width="120" height="60" as="geometry" />
        </mxCell>
        <mxCell id="oyXa_XFpboJBpk3tU4l2-79" style="edgeStyle=orthogonalEdgeStyle;rounded=0;orthogonalLoop=1;jettySize=auto;html=1;exitX=1;exitY=0.5;exitDx=0;exitDy=0;startArrow=none;startFill=0;endArrow=ERone;endFill=0;" parent="1" source="oyXa_XFpboJBpk3tU4l2-77" edge="1">
          <mxGeometry relative="1" as="geometry">
            <mxPoint x="827" y="750" as="targetPoint" />
            <Array as="points">
              <mxPoint x="770" y="1070" />
              <mxPoint x="770" y="750" />
              <mxPoint x="827" y="750" />
            </Array>
          </mxGeometry>
        </mxCell>
        <mxCell id="oyXa_XFpboJBpk3tU4l2-77" value="Recommends" style="shape=rhombus;perimeter=rhombusPerimeter;whiteSpace=wrap;html=1;align=center;fillColor=#ffe6cc;strokeColor=#d79b00;" parent="1" vertex="1">
          <mxGeometry x="490" y="1040" width="120" height="60" as="geometry" />
        </mxCell>
        <mxCell id="oyXa_XFpboJBpk3tU4l2-82" style="edgeStyle=orthogonalEdgeStyle;rounded=0;orthogonalLoop=1;jettySize=auto;html=1;exitX=1;exitY=0.5;exitDx=0;exitDy=0;entryX=0;entryY=0.25;entryDx=0;entryDy=0;startArrow=none;startFill=0;endArrow=ERmandOne;endFill=0;" parent="1" source="oyXa_XFpboJBpk3tU4l2-80" target="oyXa_XFpboJBpk3tU4l2-61" edge="1">
          <mxGeometry relative="1" as="geometry" />
        </mxCell>
        <mxCell id="oyXa_XFpboJBpk3tU4l2-80" value="Displays" style="shape=rhombus;perimeter=rhombusPerimeter;whiteSpace=wrap;html=1;align=center;fillColor=#ffe6cc;strokeColor=#d79b00;" parent="1" vertex="1">
          <mxGeometry x="580" y="480" width="120" height="60" as="geometry" />
        </mxCell>
        <mxCell id="oyXa_XFpboJBpk3tU4l2-85" style="edgeStyle=orthogonalEdgeStyle;rounded=0;orthogonalLoop=1;jettySize=auto;html=1;exitX=0;exitY=0.5;exitDx=0;exitDy=0;startArrow=none;startFill=0;endArrow=ERzeroToMany;endFill=1;entryX=1;entryY=1;entryDx=0;entryDy=0;" parent="1" source="oyXa_XFpboJBpk3tU4l2-83" target="oyXa_XFpboJBpk3tU4l2-3" edge="1">
          <mxGeometry relative="1" as="geometry">
            <mxPoint x="310" y="700" as="targetPoint" />
            <Array as="points">
              <mxPoint x="470" y="780" />
              <mxPoint x="470" y="620" />
            </Array>
          </mxGeometry>
        </mxCell>
        <mxCell id="oyXa_XFpboJBpk3tU4l2-83" value="Purchases" style="shape=rhombus;perimeter=rhombusPerimeter;whiteSpace=wrap;html=1;align=center;fillColor=#ffe6cc;strokeColor=#d79b00;" parent="1" vertex="1">
          <mxGeometry x="520" y="750" width="120" height="60" as="geometry" />
        </mxCell>
        <mxCell id="Cbv1wFr-eD6YkLbhYGv3-2" style="edgeStyle=orthogonalEdgeStyle;rounded=0;orthogonalLoop=1;jettySize=auto;html=1;exitX=0.5;exitY=1;exitDx=0;exitDy=0;entryX=1;entryY=0.5;entryDx=0;entryDy=0;endArrow=none;endFill=0;" edge="1" parent="1" source="oyXa_XFpboJBpk3tU4l2-86" target="oyXa_XFpboJBpk3tU4l2-73">
          <mxGeometry relative="1" as="geometry" />
        </mxCell>
        <mxCell id="oyXa_XFpboJBpk3tU4l2-86" value="CustomerID" style="ellipse;whiteSpace=wrap;html=1;align=center;fontStyle=4;fillColor=#f8cecc;strokeColor=#b85450;" parent="1" vertex="1">
          <mxGeometry x="920" y="700" width="100" height="40" as="geometry" />
        </mxCell>
        <mxCell id="oyXa_XFpboJBpk3tU4l2-91" style="edgeStyle=orthogonalEdgeStyle;rounded=0;orthogonalLoop=1;jettySize=auto;html=1;exitX=0;exitY=0.5;exitDx=0;exitDy=0;entryX=1;entryY=0.5;entryDx=0;entryDy=0;startArrow=none;startFill=0;endArrow=none;endFill=0;" parent="1" source="oyXa_XFpboJBpk3tU4l2-87" target="oyXa_XFpboJBpk3tU4l2-73" edge="1">
          <mxGeometry relative="1" as="geometry" />
        </mxCell>
        <mxCell id="oyXa_XFpboJBpk3tU4l2-87" value="PastOrders" style="ellipse;whiteSpace=wrap;html=1;align=center;fillColor=#d5e8d4;strokeColor=#82b366;" parent="1" vertex="1">
          <mxGeometry x="983" y="750" width="100" height="40" as="geometry" />
        </mxCell>
        <mxCell id="oyXa_XFpboJBpk3tU4l2-92" style="edgeStyle=orthogonalEdgeStyle;rounded=0;orthogonalLoop=1;jettySize=auto;html=1;exitX=0;exitY=0.5;exitDx=0;exitDy=0;entryX=1;entryY=0.75;entryDx=0;entryDy=0;startArrow=none;startFill=0;endArrow=none;endFill=0;" parent="1" source="oyXa_XFpboJBpk3tU4l2-88" target="oyXa_XFpboJBpk3tU4l2-73" edge="1">
          <mxGeometry relative="1" as="geometry" />
        </mxCell>
        <mxCell id="oyXa_XFpboJBpk3tU4l2-88" value="Name" style="ellipse;whiteSpace=wrap;html=1;align=center;fillColor=#d5e8d4;strokeColor=#82b366;" parent="1" vertex="1">
          <mxGeometry x="983" y="810" width="100" height="40" as="geometry" />
        </mxCell>
        <mxCell id="oyXa_XFpboJBpk3tU4l2-93" style="edgeStyle=orthogonalEdgeStyle;rounded=0;orthogonalLoop=1;jettySize=auto;html=1;exitX=0;exitY=0.5;exitDx=0;exitDy=0;entryX=1;entryY=0.75;entryDx=0;entryDy=0;startArrow=none;startFill=0;endArrow=none;endFill=0;" parent="1" source="oyXa_XFpboJBpk3tU4l2-89" target="oyXa_XFpboJBpk3tU4l2-73" edge="1">
          <mxGeometry relative="1" as="geometry" />
        </mxCell>
        <mxCell id="oyXa_XFpboJBpk3tU4l2-89" value="Address" style="ellipse;whiteSpace=wrap;html=1;align=center;fillColor=#d5e8d4;strokeColor=#82b366;" parent="1" vertex="1">
          <mxGeometry x="983" y="870" width="100" height="40" as="geometry" />
        </mxCell>
        <mxCell id="oyXa_XFpboJBpk3tU4l2-94" style="edgeStyle=orthogonalEdgeStyle;rounded=0;orthogonalLoop=1;jettySize=auto;html=1;exitX=0;exitY=0.5;exitDx=0;exitDy=0;entryX=1;entryY=0.75;entryDx=0;entryDy=0;startArrow=none;startFill=0;endArrow=none;endFill=0;" parent="1" source="oyXa_XFpboJBpk3tU4l2-90" target="oyXa_XFpboJBpk3tU4l2-73" edge="1">
          <mxGeometry relative="1" as="geometry" />
        </mxCell>
        <mxCell id="oyXa_XFpboJBpk3tU4l2-90" value="Age" style="ellipse;whiteSpace=wrap;html=1;align=center;fillColor=#d5e8d4;strokeColor=#82b366;" parent="1" vertex="1">
          <mxGeometry x="983" y="920" width="100" height="40" as="geometry" />
        </mxCell>
        <mxCell id="Cbv1wFr-eD6YkLbhYGv3-12" style="edgeStyle=orthogonalEdgeStyle;rounded=0;orthogonalLoop=1;jettySize=auto;html=1;exitX=0.5;exitY=1;exitDx=0;exitDy=0;entryX=0.5;entryY=0;entryDx=0;entryDy=0;startArrow=ERone;startFill=0;endArrow=none;endFill=0;" edge="1" parent="1" source="Cbv1wFr-eD6YkLbhYGv3-3" target="Cbv1wFr-eD6YkLbhYGv3-11">
          <mxGeometry relative="1" as="geometry" />
        </mxCell>
        <mxCell id="Cbv1wFr-eD6YkLbhYGv3-3" value="Seller" style="rounded=1;arcSize=10;whiteSpace=wrap;html=1;align=center;fillColor=#dae8fc;strokeColor=#6c8ebf;" vertex="1" parent="1">
          <mxGeometry x="355" y="390" width="100" height="40" as="geometry" />
        </mxCell>
        <mxCell id="Cbv1wFr-eD6YkLbhYGv3-8" style="edgeStyle=orthogonalEdgeStyle;rounded=0;orthogonalLoop=1;jettySize=auto;html=1;exitX=1;exitY=0.5;exitDx=0;exitDy=0;entryX=0;entryY=0.25;entryDx=0;entryDy=0;startArrow=none;startFill=0;endArrow=none;endFill=0;" edge="1" parent="1" source="Cbv1wFr-eD6YkLbhYGv3-5" target="Cbv1wFr-eD6YkLbhYGv3-3">
          <mxGeometry relative="1" as="geometry" />
        </mxCell>
        <mxCell id="Cbv1wFr-eD6YkLbhYGv3-5" value="SellerID" style="ellipse;whiteSpace=wrap;html=1;align=center;fontStyle=4;fillColor=#f8cecc;strokeColor=#b85450;" vertex="1" parent="1">
          <mxGeometry x="230" y="350" width="100" height="40" as="geometry" />
        </mxCell>
        <mxCell id="Cbv1wFr-eD6YkLbhYGv3-9" style="edgeStyle=orthogonalEdgeStyle;rounded=0;orthogonalLoop=1;jettySize=auto;html=1;exitX=1;exitY=0.5;exitDx=0;exitDy=0;entryX=0;entryY=0.5;entryDx=0;entryDy=0;startArrow=none;startFill=0;endArrow=none;endFill=0;" edge="1" parent="1" source="Cbv1wFr-eD6YkLbhYGv3-6" target="Cbv1wFr-eD6YkLbhYGv3-3">
          <mxGeometry relative="1" as="geometry" />
        </mxCell>
        <mxCell id="Cbv1wFr-eD6YkLbhYGv3-6" value="Name" style="ellipse;whiteSpace=wrap;html=1;align=center;fillColor=#d5e8d4;strokeColor=#82b366;" vertex="1" parent="1">
          <mxGeometry x="230" y="400" width="100" height="40" as="geometry" />
        </mxCell>
        <mxCell id="Cbv1wFr-eD6YkLbhYGv3-10" style="edgeStyle=orthogonalEdgeStyle;rounded=0;orthogonalLoop=1;jettySize=auto;html=1;exitX=1;exitY=0.5;exitDx=0;exitDy=0;startArrow=none;startFill=0;endArrow=none;endFill=0;" edge="1" parent="1" source="Cbv1wFr-eD6YkLbhYGv3-7">
          <mxGeometry relative="1" as="geometry">
            <mxPoint x="360" y="430" as="targetPoint" />
          </mxGeometry>
        </mxCell>
        <mxCell id="Cbv1wFr-eD6YkLbhYGv3-7" value="Rating" style="ellipse;whiteSpace=wrap;html=1;align=center;fillColor=#d5e8d4;strokeColor=#82b366;" vertex="1" parent="1">
          <mxGeometry x="230" y="450" width="100" height="40" as="geometry" />
        </mxCell>
        <mxCell id="Cbv1wFr-eD6YkLbhYGv3-11" value="Sells" style="shape=rhombus;perimeter=rhombusPerimeter;whiteSpace=wrap;html=1;align=center;fillColor=#ffe6cc;strokeColor=#d79b00;" vertex="1" parent="1">
          <mxGeometry x="345" y="520" width="120" height="60" as="geometry" />
        </mxCell>
        <mxCell id="Cbv1wFr-eD6YkLbhYGv3-26" style="edgeStyle=orthogonalEdgeStyle;rounded=0;orthogonalLoop=1;jettySize=auto;html=1;entryX=1;entryY=0.5;entryDx=0;entryDy=0;startArrow=ERone;startFill=0;endArrow=none;endFill=0;exitX=0;exitY=0.5;exitDx=0;exitDy=0;" edge="1" parent="1" source="Cbv1wFr-eD6YkLbhYGv3-13" target="Cbv1wFr-eD6YkLbhYGv3-25">
          <mxGeometry relative="1" as="geometry">
            <mxPoint x="730" y="1110" as="sourcePoint" />
            <Array as="points">
              <mxPoint x="694" y="1060" />
              <mxPoint x="694" y="930" />
            </Array>
          </mxGeometry>
        </mxCell>
        <mxCell id="Cbv1wFr-eD6YkLbhYGv3-13" value="Order" style="rounded=1;arcSize=10;whiteSpace=wrap;html=1;align=center;fillColor=#dae8fc;strokeColor=#6c8ebf;" vertex="1" parent="1">
          <mxGeometry x="827" y="1040" width="100" height="40" as="geometry" />
        </mxCell>
        <mxCell id="Cbv1wFr-eD6YkLbhYGv3-16" style="edgeStyle=orthogonalEdgeStyle;rounded=0;orthogonalLoop=1;jettySize=auto;html=1;exitX=0.5;exitY=1;exitDx=0;exitDy=0;entryX=0.5;entryY=0;entryDx=0;entryDy=0;startArrow=none;startFill=0;endArrow=ERoneToMany;endFill=0;" edge="1" parent="1" source="Cbv1wFr-eD6YkLbhYGv3-14" target="Cbv1wFr-eD6YkLbhYGv3-13">
          <mxGeometry relative="1" as="geometry" />
        </mxCell>
        <mxCell id="Cbv1wFr-eD6YkLbhYGv3-14" value="Makes" style="shape=rhombus;perimeter=rhombusPerimeter;whiteSpace=wrap;html=1;align=center;fillColor=#ffe6cc;strokeColor=#d79b00;" vertex="1" parent="1">
          <mxGeometry x="817" y="880" width="120" height="60" as="geometry" />
        </mxCell>
        <mxCell id="Cbv1wFr-eD6YkLbhYGv3-20" style="edgeStyle=orthogonalEdgeStyle;rounded=0;orthogonalLoop=1;jettySize=auto;html=1;exitX=0.5;exitY=1;exitDx=0;exitDy=0;entryX=1;entryY=0.25;entryDx=0;entryDy=0;startArrow=none;startFill=0;endArrow=none;endFill=0;" edge="1" parent="1" source="Cbv1wFr-eD6YkLbhYGv3-17" target="Cbv1wFr-eD6YkLbhYGv3-13">
          <mxGeometry relative="1" as="geometry" />
        </mxCell>
        <mxCell id="Cbv1wFr-eD6YkLbhYGv3-17" value="OrderID" style="ellipse;whiteSpace=wrap;html=1;align=center;fontStyle=4;fillColor=#f8cecc;strokeColor=#b85450;" vertex="1" parent="1">
          <mxGeometry x="920" y="990" width="100" height="40" as="geometry" />
        </mxCell>
        <mxCell id="Cbv1wFr-eD6YkLbhYGv3-21" style="edgeStyle=orthogonalEdgeStyle;rounded=0;orthogonalLoop=1;jettySize=auto;html=1;exitX=0;exitY=0.5;exitDx=0;exitDy=0;entryX=1;entryY=0.5;entryDx=0;entryDy=0;startArrow=none;startFill=0;endArrow=none;endFill=0;" edge="1" parent="1" source="Cbv1wFr-eD6YkLbhYGv3-18" target="Cbv1wFr-eD6YkLbhYGv3-13">
          <mxGeometry relative="1" as="geometry" />
        </mxCell>
        <mxCell id="Cbv1wFr-eD6YkLbhYGv3-18" value="Total" style="ellipse;whiteSpace=wrap;html=1;align=center;fillColor=#d5e8d4;strokeColor=#82b366;" vertex="1" parent="1">
          <mxGeometry x="983" y="1040" width="100" height="40" as="geometry" />
        </mxCell>
        <mxCell id="Cbv1wFr-eD6YkLbhYGv3-22" style="edgeStyle=orthogonalEdgeStyle;rounded=0;orthogonalLoop=1;jettySize=auto;html=1;exitX=0;exitY=0.5;exitDx=0;exitDy=0;startArrow=none;startFill=0;endArrow=none;endFill=0;entryX=1;entryY=0.5;entryDx=0;entryDy=0;" edge="1" parent="1" source="Cbv1wFr-eD6YkLbhYGv3-19" target="Cbv1wFr-eD6YkLbhYGv3-13">
          <mxGeometry relative="1" as="geometry">
            <mxPoint x="970" y="1090" as="targetPoint" />
          </mxGeometry>
        </mxCell>
        <mxCell id="Cbv1wFr-eD6YkLbhYGv3-19" value="PaymentMethod" style="ellipse;whiteSpace=wrap;html=1;align=center;fillColor=#d5e8d4;strokeColor=#82b366;" vertex="1" parent="1">
          <mxGeometry x="983" y="1090" width="100" height="40" as="geometry" />
        </mxCell>
        <mxCell id="Cbv1wFr-eD6YkLbhYGv3-24" style="edgeStyle=orthogonalEdgeStyle;rounded=0;orthogonalLoop=1;jettySize=auto;html=1;exitX=0;exitY=0.5;exitDx=0;exitDy=0;entryX=1;entryY=0.5;entryDx=0;entryDy=0;startArrow=none;startFill=0;endArrow=none;endFill=0;" edge="1" parent="1" source="Cbv1wFr-eD6YkLbhYGv3-23" target="Cbv1wFr-eD6YkLbhYGv3-13">
          <mxGeometry relative="1" as="geometry" />
        </mxCell>
        <mxCell id="Cbv1wFr-eD6YkLbhYGv3-23" value="ShippingTime" style="ellipse;whiteSpace=wrap;html=1;align=center;fillColor=#d5e8d4;strokeColor=#82b366;" vertex="1" parent="1">
          <mxGeometry x="983" y="1140" width="100" height="40" as="geometry" />
        </mxCell>
        <mxCell id="Cbv1wFr-eD6YkLbhYGv3-27" style="edgeStyle=orthogonalEdgeStyle;rounded=0;orthogonalLoop=1;jettySize=auto;html=1;exitX=0;exitY=0.5;exitDx=0;exitDy=0;startArrow=none;startFill=0;endArrow=ERzeroToMany;endFill=1;entryX=1;entryY=1;entryDx=0;entryDy=0;" edge="1" parent="1" source="Cbv1wFr-eD6YkLbhYGv3-25" target="oyXa_XFpboJBpk3tU4l2-3">
          <mxGeometry relative="1" as="geometry">
            <mxPoint x="300" y="720" as="targetPoint" />
            <Array as="points">
              <mxPoint x="430" y="930" />
              <mxPoint x="430" y="660" />
              <mxPoint x="285" y="660" />
            </Array>
          </mxGeometry>
        </mxCell>
        <mxCell id="Cbv1wFr-eD6YkLbhYGv3-25" value="Contains" style="shape=rhombus;perimeter=rhombusPerimeter;whiteSpace=wrap;html=1;align=center;fillColor=#ffe6cc;strokeColor=#d79b00;" vertex="1" parent="1">
          <mxGeometry x="430" y="900" width="120" height="60" as="geometry" />
        </mxCell>
        <mxCell id="Cbv1wFr-eD6YkLbhYGv3-37" style="edgeStyle=orthogonalEdgeStyle;rounded=0;orthogonalLoop=1;jettySize=auto;html=1;exitX=0.5;exitY=0;exitDx=0;exitDy=0;entryX=0.5;entryY=1;entryDx=0;entryDy=0;startArrow=ERone;startFill=0;endArrow=none;endFill=0;" edge="1" parent="1" source="Cbv1wFr-eD6YkLbhYGv3-28" target="Cbv1wFr-eD6YkLbhYGv3-35">
          <mxGeometry relative="1" as="geometry" />
        </mxCell>
        <mxCell id="Cbv1wFr-eD6YkLbhYGv3-42" style="edgeStyle=orthogonalEdgeStyle;rounded=0;orthogonalLoop=1;jettySize=auto;html=1;exitX=1;exitY=0.5;exitDx=0;exitDy=0;entryX=0;entryY=0.5;entryDx=0;entryDy=0;startArrow=ERone;startFill=0;endArrow=none;endFill=0;" edge="1" parent="1" source="Cbv1wFr-eD6YkLbhYGv3-28" target="Cbv1wFr-eD6YkLbhYGv3-41">
          <mxGeometry relative="1" as="geometry" />
        </mxCell>
        <mxCell id="Cbv1wFr-eD6YkLbhYGv3-28" value="Warehouse" style="rounded=1;arcSize=10;whiteSpace=wrap;html=1;align=center;fillColor=#dae8fc;strokeColor=#6c8ebf;" vertex="1" parent="1">
          <mxGeometry x="330" y="1240" width="100" height="40" as="geometry" />
        </mxCell>
        <mxCell id="Cbv1wFr-eD6YkLbhYGv3-34" style="edgeStyle=orthogonalEdgeStyle;rounded=0;orthogonalLoop=1;jettySize=auto;html=1;exitX=1;exitY=0.5;exitDx=0;exitDy=0;entryX=0;entryY=0.25;entryDx=0;entryDy=0;startArrow=none;startFill=0;endArrow=none;endFill=0;" edge="1" parent="1" source="Cbv1wFr-eD6YkLbhYGv3-29" target="Cbv1wFr-eD6YkLbhYGv3-28">
          <mxGeometry relative="1" as="geometry" />
        </mxCell>
        <mxCell id="Cbv1wFr-eD6YkLbhYGv3-29" value="WarehouseID" style="ellipse;whiteSpace=wrap;html=1;align=center;fontStyle=4;fillColor=#f8cecc;strokeColor=#b85450;" vertex="1" parent="1">
          <mxGeometry x="200" y="1200" width="100" height="40" as="geometry" />
        </mxCell>
        <mxCell id="Cbv1wFr-eD6YkLbhYGv3-33" style="edgeStyle=orthogonalEdgeStyle;rounded=0;orthogonalLoop=1;jettySize=auto;html=1;exitX=1;exitY=0.5;exitDx=0;exitDy=0;entryX=0;entryY=0.75;entryDx=0;entryDy=0;startArrow=none;startFill=0;endArrow=none;endFill=0;" edge="1" parent="1" source="Cbv1wFr-eD6YkLbhYGv3-30" target="Cbv1wFr-eD6YkLbhYGv3-28">
          <mxGeometry relative="1" as="geometry" />
        </mxCell>
        <mxCell id="Cbv1wFr-eD6YkLbhYGv3-30" value="Name" style="ellipse;whiteSpace=wrap;html=1;align=center;fillColor=#d5e8d4;strokeColor=#82b366;" vertex="1" parent="1">
          <mxGeometry x="190" y="1260" width="100" height="40" as="geometry" />
        </mxCell>
        <mxCell id="Cbv1wFr-eD6YkLbhYGv3-32" style="edgeStyle=orthogonalEdgeStyle;rounded=0;orthogonalLoop=1;jettySize=auto;html=1;exitX=1;exitY=0.5;exitDx=0;exitDy=0;entryX=0;entryY=0.75;entryDx=0;entryDy=0;startArrow=none;startFill=0;endArrow=none;endFill=0;" edge="1" parent="1" source="Cbv1wFr-eD6YkLbhYGv3-31" target="Cbv1wFr-eD6YkLbhYGv3-28">
          <mxGeometry relative="1" as="geometry" />
        </mxCell>
        <mxCell id="Cbv1wFr-eD6YkLbhYGv3-31" value="Address" style="ellipse;whiteSpace=wrap;html=1;align=center;fillColor=#d5e8d4;strokeColor=#82b366;" vertex="1" parent="1">
          <mxGeometry x="190" y="1310" width="100" height="40" as="geometry" />
        </mxCell>
        <mxCell id="Cbv1wFr-eD6YkLbhYGv3-38" style="edgeStyle=orthogonalEdgeStyle;rounded=0;orthogonalLoop=1;jettySize=auto;html=1;exitX=0.5;exitY=0;exitDx=0;exitDy=0;entryX=0.75;entryY=1;entryDx=0;entryDy=0;startArrow=none;startFill=0;endArrow=ERoneToMany;endFill=0;" edge="1" parent="1" source="Cbv1wFr-eD6YkLbhYGv3-35" target="oyXa_XFpboJBpk3tU4l2-3">
          <mxGeometry relative="1" as="geometry" />
        </mxCell>
        <mxCell id="Cbv1wFr-eD6YkLbhYGv3-35" value="Stores" style="shape=rhombus;perimeter=rhombusPerimeter;whiteSpace=wrap;html=1;align=center;fillColor=#ffe6cc;strokeColor=#d79b00;" vertex="1" parent="1">
          <mxGeometry x="320" y="970" width="120" height="60" as="geometry" />
        </mxCell>
        <mxCell id="Cbv1wFr-eD6YkLbhYGv3-39" value="ShoppingCart" style="rounded=1;arcSize=10;whiteSpace=wrap;html=1;align=center;fillColor=#dae8fc;strokeColor=#6c8ebf;" vertex="1" parent="1">
          <mxGeometry x="827" y="1240" width="100" height="40" as="geometry" />
        </mxCell>
        <mxCell id="Cbv1wFr-eD6YkLbhYGv3-46" style="edgeStyle=orthogonalEdgeStyle;rounded=0;orthogonalLoop=1;jettySize=auto;html=1;exitX=0;exitY=0.5;exitDx=0;exitDy=0;entryX=0.75;entryY=0;entryDx=0;entryDy=0;startArrow=none;startFill=0;endArrow=none;endFill=0;" edge="1" parent="1" source="Cbv1wFr-eD6YkLbhYGv3-40" target="Cbv1wFr-eD6YkLbhYGv3-39">
          <mxGeometry relative="1" as="geometry" />
        </mxCell>
        <mxCell id="Cbv1wFr-eD6YkLbhYGv3-40" value="ShoppingCartID" style="ellipse;whiteSpace=wrap;html=1;align=center;fontStyle=4;fillColor=#f8cecc;strokeColor=#b85450;" vertex="1" parent="1">
          <mxGeometry x="927" y="1200" width="100" height="40" as="geometry" />
        </mxCell>
        <mxCell id="Cbv1wFr-eD6YkLbhYGv3-43" style="edgeStyle=orthogonalEdgeStyle;rounded=0;orthogonalLoop=1;jettySize=auto;html=1;startArrow=none;startFill=0;endArrow=ERoneToMany;endFill=0;entryX=0;entryY=0.5;entryDx=0;entryDy=0;exitX=0.5;exitY=0;exitDx=0;exitDy=0;" edge="1" parent="1" source="Cbv1wFr-eD6YkLbhYGv3-41" target="oyXa_XFpboJBpk3tU4l2-73">
          <mxGeometry relative="1" as="geometry">
            <mxPoint x="620" y="1110" as="sourcePoint" />
            <mxPoint x="820" y="760" as="targetPoint" />
            <Array as="points">
              <mxPoint x="650" y="1090" />
              <mxPoint x="780" y="1090" />
              <mxPoint x="780" y="760" />
            </Array>
          </mxGeometry>
        </mxCell>
        <mxCell id="Cbv1wFr-eD6YkLbhYGv3-41" value="Delivers" style="shape=rhombus;perimeter=rhombusPerimeter;whiteSpace=wrap;html=1;align=center;fillColor=#ffe6cc;strokeColor=#d79b00;" vertex="1" parent="1">
          <mxGeometry x="590" y="1120" width="120" height="60" as="geometry" />
        </mxCell>
        <mxCell id="Cbv1wFr-eD6YkLbhYGv3-45" style="edgeStyle=orthogonalEdgeStyle;rounded=0;orthogonalLoop=1;jettySize=auto;html=1;exitX=0;exitY=0.5;exitDx=0;exitDy=0;entryX=1;entryY=0.5;entryDx=0;entryDy=0;startArrow=none;startFill=0;endArrow=none;endFill=0;" edge="1" parent="1" source="Cbv1wFr-eD6YkLbhYGv3-44" target="Cbv1wFr-eD6YkLbhYGv3-39">
          <mxGeometry relative="1" as="geometry" />
        </mxCell>
        <mxCell id="Cbv1wFr-eD6YkLbhYGv3-44" value="Quantity" style="ellipse;whiteSpace=wrap;html=1;align=center;fillColor=#d5e8d4;strokeColor=#82b366;" vertex="1" parent="1">
          <mxGeometry x="983" y="1245" width="100" height="40" as="geometry" />
        </mxCell>
        <mxCell id="Cbv1wFr-eD6YkLbhYGv3-48" style="edgeStyle=orthogonalEdgeStyle;rounded=0;orthogonalLoop=1;jettySize=auto;html=1;exitX=0.5;exitY=0;exitDx=0;exitDy=0;entryX=0;entryY=0.75;entryDx=0;entryDy=0;startArrow=none;startFill=0;endArrow=ERone;endFill=0;" edge="1" parent="1" source="Cbv1wFr-eD6YkLbhYGv3-47" target="oyXa_XFpboJBpk3tU4l2-73">
          <mxGeometry relative="1" as="geometry" />
        </mxCell>
        <mxCell id="Cbv1wFr-eD6YkLbhYGv3-49" style="edgeStyle=orthogonalEdgeStyle;rounded=0;orthogonalLoop=1;jettySize=auto;html=1;exitX=0.5;exitY=1;exitDx=0;exitDy=0;entryX=0;entryY=0.5;entryDx=0;entryDy=0;startArrow=none;startFill=0;endArrow=ERone;endFill=0;" edge="1" parent="1" source="Cbv1wFr-eD6YkLbhYGv3-47" target="Cbv1wFr-eD6YkLbhYGv3-39">
          <mxGeometry relative="1" as="geometry" />
        </mxCell>
        <mxCell id="Cbv1wFr-eD6YkLbhYGv3-47" value="Creates" style="shape=rhombus;perimeter=rhombusPerimeter;whiteSpace=wrap;html=1;align=center;fillColor=#ffe6cc;strokeColor=#d79b00;" vertex="1" parent="1">
          <mxGeometry x="730" y="1160" width="120" height="60" as="geometry" />
        </mxCell>
      </root>
    </mxGraphModel>
  </diagram>
</mxfile>
